<?xml version="1.0" standalone="no"?>
<!DOCTYPE svg PUBLIC "-//W3C//DTD SVG 20010904//EN"
 "http://www.w3.org/TR/2001/REC-SVG-20010904/DTD/svg10.dtd">
<svg version="1.0" xmlns="http://www.w3.org/2000/svg"
 width="740.000000pt" height="282.000000pt" viewBox="0 0 740.000000 282.000000"
 preserveAspectRatio="xMidYMid meet">

<g transform="translate(0.000000,282.000000) scale(0.100000,-0.100000)"
fill="#000000" stroke="none">
<path d="M5101 2254 c-17 -7 -34 -21 -38 -30 -5 -15 -17 -16 -97 -10 -50 3
-118 13 -151 21 -94 22 -95 22 -95 -31 0 -25 5 -54 10 -65 15 -27 83 -59 141
-66 27 -3 49 -11 49 -17 0 -6 -35 -56 -78 -110 -62 -80 -85 -102 -117 -113
-55 -18 -85 -55 -85 -102 0 -55 27 -86 77 -86 35 0 53 9 108 49 9 7 34 0 76
-19 74 -33 179 -44 219 -23 43 23 70 75 70 134 0 30 -4 54 -9 54 -5 0 -28 -9
-52 -19 -38 -17 -54 -19 -118 -10 -41 5 -76 11 -78 13 -5 5 208 269 226 280
30 18 61 59 61 81 0 30 -34 72 -64 77 -13 3 -38 -1 -55 -8z"/>
<path d="M2670 2251 c-41 -13 -90 -41 -90 -52 0 -5 8 -26 19 -47 18 -37 18
-38 -4 -162 -44 -235 -42 -300 8 -335 28 -20 80 -19 123 1 31 15 37 15 81 0
115 -39 238 -3 294 88 16 24 19 44 16 85 -3 47 -9 59 -40 88 -20 18 -46 33
-56 33 -32 0 -34 18 -4 34 76 40 118 132 89 199 -31 76 -125 97 -243 55 l-63
-23 -15 23 c-17 23 -63 28 -115 13z m243 -102 c29 -16 37 -28 37 -60 0 -36
-35 -78 -84 -100 -42 -19 -92 -25 -99 -11 -2 4 3 42 11 85 11 63 18 80 36 87
30 13 74 12 99 -1z m-14 -254 c78 -40 29 -135 -69 -135 -90 0 -104 13 -92 85
5 28 14 43 32 52 34 17 95 16 129 -2z"/>
<path d="M3450 2251 c-33 -10 -90 -40 -90 -47 0 -2 9 -23 20 -45 l21 -40 -20
-107 c-48 -260 -48 -322 2 -357 24 -17 73 -20 109 -6 13 5 51 4 89 -2 36 -5
78 -7 93 -3 35 9 66 61 66 110 0 37 -1 38 -27 32 -16 -4 -66 -10 -112 -13
l-84 -6 5 60 c3 33 18 131 34 217 26 143 27 160 13 184 -12 22 -23 27 -54 29
-22 1 -51 -2 -65 -6z"/>
<path d="M4091 2235 c-56 -26 -55 -25 -41 -77 10 -35 6 -45 -64 -185 -81 -163
-102 -224 -92 -278 11 -55 70 -72 138 -39 32 15 33 18 33 75 1 42 5 63 15 69
23 15 180 12 185 -2 2 -7 9 -33 15 -57 16 -62 58 -101 108 -101 38 0 102 17
102 27 0 3 -9 18 -20 34 -37 50 -51 156 -48 339 4 225 10 216 -155 217 -111 1
-130 -1 -176 -22z m176 -172 c-4 -38 -7 -92 -7 -120 l0 -53 -70 0 c-44 0 -70
4 -70 11 0 13 75 174 96 207 8 12 24 22 36 22 20 0 21 -3 15 -67z"/>
<path d="M5530 2251 c-14 -4 -40 -16 -58 -25 -35 -18 -36 -29 -8 -84 10 -19 7
-54 -16 -185 -35 -197 -33 -260 6 -294 32 -27 80 -30 132 -8 32 13 34 16 23
37 -20 37 -13 145 21 329 28 157 31 180 18 205 -11 24 -20 29 -53 31 -22 1
-51 -2 -65 -6z"/>
<path d="M5990 2253 c-8 -3 -34 -14 -58 -24 l-42 -18 22 -45 22 -45 -24 -128
c-15 -76 -25 -166 -25 -221 0 -87 2 -95 24 -113 44 -36 172 -12 156 29 -16 41
-16 126 0 223 25 152 48 170 58 46 8 -89 38 -189 71 -238 49 -72 164 -100 257
-63 34 14 40 20 34 38 -20 63 -16 138 20 338 20 114 34 212 30 218 -3 5 -30
10 -59 10 -155 0 -226 -180 -155 -392 23 -70 24 -80 3 -76 -24 5 -52 86 -83
238 -32 157 -47 191 -95 214 -32 15 -123 21 -156 9z"/>
<path d="M6989 2244 c-146 -44 -253 -188 -252 -337 1 -92 21 -146 73 -197 57
-58 112 -75 210 -67 68 6 70 5 70 -17 0 -37 21 -86 40 -96 25 -13 69 -13 108
1 28 10 31 14 24 37 -11 42 -5 129 17 229 26 115 26 128 0 154 -17 17 -28 20
-57 14 -47 -9 -132 -45 -132 -56 0 -5 7 -24 16 -43 20 -42 14 -60 -28 -86 -66
-40 -135 -15 -159 57 -27 84 20 236 85 273 25 14 28 13 44 -6 40 -50 117 -67
172 -39 36 19 50 43 50 87 0 43 -24 76 -66 94 -42 18 -155 17 -215 -2z"/>
<path d="M329 2191 c-36 -36 -39 -43 -39 -94 0 -53 12 -95 87 -302 58 -158 19
-310 -85 -331 -26 -5 -36 -1 -61 23 -38 39 -48 89 -28 150 9 26 14 49 12 52
-11 11 -76 -75 -95 -126 -41 -109 -10 -257 77 -368 36 -46 132 -119 204 -155
l56 -29 7 -86 c19 -251 100 -445 240 -571 99 -90 266 -161 320 -136 48 22 33
67 -49 147 -88 85 -85 127 21 316 37 65 54 106 54 130 0 22 -18 71 -50 133
-56 110 -62 151 -28 206 l21 35 12 -53 c8 -33 23 -65 41 -83 26 -28 34 -30 74
-26 34 4 51 13 76 40 75 81 70 190 -15 366 -73 150 -76 240 -10 295 42 36 50
33 43 -18 -9 -61 9 -83 143 -182 114 -85 167 -142 178 -195 4 -16 9 -29 12
-29 2 0 43 35 90 78 105 95 133 140 133 211 0 104 -37 142 -260 269 -245 139
-529 252 -757 302 -49 10 -91 16 -95 12 -5 -5 -22 -60 -39 -123 -18 -62 -35
-118 -40 -123 -10 -11 -151 130 -174 174 -11 21 -16 49 -13 81 4 61 -10 64
-63 10z m504 -198 c32 -36 26 -116 -12 -154 -34 -34 -70 -37 -96 -9 -23 25
-17 111 11 141 35 39 73 48 97 22z m627 -233 c26 -48 -55 -133 -95 -100 -19
16 -19 43 0 80 23 44 76 55 95 20z m-495 -125 c55 -54 8 -185 -66 -185 -78 0
-77 158 1 197 34 17 37 17 65 -12z m-264 -372 c13 -35 1 -81 -26 -99 -49 -32
-88 49 -49 104 22 32 62 29 75 -5z m30 -373 c26 -14 59 -82 59 -120 0 -108
-98 -123 -149 -23 -16 31 -14 105 5 131 16 24 53 29 85 12z"/>
<path d="M2670 1131 c-22 -7 -90 -39 -98 -46 -2 -1 7 -23 19 -47 l21 -45 -26
-156 c-28 -168 -32 -242 -15 -280 21 -46 89 -60 155 -32 31 13 34 18 27 37 -4
13 -8 50 -8 83 l0 60 67 -3 c195 -10 329 123 297 295 -19 100 -90 151 -194
138 -69 -8 -90 -8 -165 -1 -30 3 -66 2 -80 -3z m238 -127 c28 -32 29 -87 2
-132 -28 -46 -128 -90 -144 -64 -9 15 31 214 45 224 22 14 72 0 97 -28z"/>
<path d="M3397 1120 c-76 -30 -79 -34 -55 -85 l21 -43 -28 -172 c-16 -102 -25
-191 -22 -218 9 -82 76 -113 163 -77 31 13 35 19 30 37 -16 58 -17 120 -1 208
9 52 25 140 34 195 18 101 15 150 -11 167 -22 13 -80 8 -131 -12z"/>
<path d="M3785 1132 c-3 -3 -5 -28 -5 -55 0 -42 5 -54 33 -82 33 -33 88 -55
140 -55 15 0 27 -5 27 -12 0 -7 -35 -58 -78 -113 -62 -79 -84 -101 -110 -106
-39 -8 -59 -23 -79 -62 -32 -63 8 -132 76 -132 33 0 52 9 106 49 8 6 28 2 56
-11 184 -86 309 -42 309 109 0 57 -1 59 -22 52 -13 -3 -36 -13 -52 -21 -21
-11 -46 -13 -97 -8 -38 4 -72 11 -75 16 -7 11 141 196 218 271 65 65 73 96 37
142 -30 38 -87 36 -132 -4 l-34 -30 -89 11 c-49 6 -119 19 -156 28 -38 10 -70
15 -73 13z"/>
<path d="M4496 1116 c-25 -92 33 -157 153 -175 24 -3 44 -10 44 -14 0 -5 -34
-53 -74 -108 -59 -79 -81 -100 -109 -108 -52 -15 -78 -38 -88 -75 -29 -105 60
-157 158 -92 l42 28 61 -27 c118 -53 230 -43 271 26 16 28 26 132 14 145 -3 2
-27 -5 -54 -16 -41 -18 -60 -20 -117 -15 -37 4 -69 11 -72 15 -7 11 195 258
239 293 31 24 36 34 36 67 0 82 -86 110 -154 50 l-34 -30 -110 15 c-61 9 -131
22 -156 29 -42 13 -45 13 -50 -8z"/>
<path d="M5357 1120 c-72 -28 -75 -32 -64 -88 10 -46 9 -50 -41 -142 -28 -53
-65 -128 -82 -169 -67 -163 -20 -247 109 -195 37 15 39 17 39 63 0 82 10 91
103 91 73 0 80 -2 88 -22 48 -123 70 -148 133 -148 21 0 55 7 75 15 33 14 35
17 21 33 -48 54 -52 78 -58 312 -3 124 -10 233 -14 243 -11 24 -50 32 -102 20
-23 -6 -49 -6 -56 -2 -22 15 -101 9 -151 -11z m153 -214 c0 -52 -4 -106 -10
-120 -9 -24 -15 -26 -64 -26 -30 0 -57 4 -61 10 -9 15 103 230 120 230 12 0
15 -17 15 -94z"/>
</g>
</svg>
