<?xml version="1.0" standalone="no"?>
<!DOCTYPE svg PUBLIC "-//W3C//DTD SVG 20010904//EN"
 "http://www.w3.org/TR/2001/REC-SVG-20010904/DTD/svg10.dtd">
<svg version="1.0" xmlns="http://www.w3.org/2000/svg"
 width="495.000000pt" height="347.000000pt" viewBox="0 0 495.000000 347.000000"
 preserveAspectRatio="xMidYMid meet">

<g transform="translate(0.000000,347.000000) scale(0.100000,-0.100000)"
fill="#000000" stroke="none">
<path d="M1022 3370 c-35 -22 -71 -87 -72 -130 0 -14 -3 -35 -6 -48 -6 -22 -8
-21 -54 22 -78 73 -176 87 -270 39 -75 -39 -112 -88 -118 -156 -4 -49 -1 -57
24 -86 25 -26 40 -32 98 -40 45 -7 82 -19 108 -36 51 -34 58 -54 27 -74 -13
-9 -63 -49 -111 -89 -154 -127 -266 -288 -327 -470 -32 -95 -39 -107 -61 -110
-62 -7 -72 -13 -92 -59 -24 -54 -20 -84 22 -165 35 -67 36 -81 11 -116 -111
-158 -152 -395 -102 -587 85 -322 329 -574 769 -794 446 -223 1004 -341 1611
-341 564 0 1034 87 1488 276 l132 55 103 -38 c143 -52 205 -52 311 0 128 63
256 177 318 281 27 46 29 120 5 162 -10 17 -37 42 -61 56 -37 23 -41 29 -37
56 2 17 -1 46 -8 66 -10 31 -8 45 21 128 32 88 33 100 33 238 1 137 -1 150
-30 232 -17 48 -50 118 -72 155 -27 46 -45 93 -56 143 -58 285 -254 557 -538
745 l-58 38 -37 -18 c-21 -10 -62 -35 -91 -57 -30 -22 -56 -37 -59 -34 -13 13
10 36 71 70 104 58 96 70 -106 174 -328 169 -644 257 -1213 338 -243 35 -276
38 -510 38 -230 1 -263 -2 -406 -27 -87 -15 -195 -39 -240 -52 -116 -34 -115
-34 -133 28 -20 68 -69 142 -119 178 -50 36 -115 39 -165 9z m110 -29 c4 -1
24 -16 44 -33 61 -54 121 -208 81 -208 -20 0 -176 -64 -264 -108 l-81 -41 -16
24 c-20 30 -86 95 -98 95 -19 0 -5 -26 37 -71 25 -26 45 -52 45 -56 0 -5 -9
-14 -21 -21 -18 -11 -24 -9 -57 19 -46 41 -109 68 -173 76 -48 6 -79 23 -79
44 0 5 12 3 27 -5 20 -10 33 -11 49 -4 31 15 65 4 118 -37 70 -53 93 -44 34
12 -45 43 -153 86 -195 78 -38 -7 -38 -6 -19 40 29 69 152 114 227 82 19 -8
56 -33 82 -56 61 -52 100 -55 150 -11 40 34 48 65 35 122 -11 49 3 70 41 64
14 -2 29 -5 33 -5z m1308 -175 c47 -9 171 -27 277 -41 356 -47 567 -101 852
-217 136 -56 295 -132 335 -161 16 -12 12 -17 -39 -50 -32 -20 -62 -37 -67
-37 -5 0 -40 17 -76 39 -327 190 -628 289 -1037 342 -135 18 -515 15 -670 -5
-194 -25 -356 -54 -485 -88 -143 -37 -358 -115 -385 -138 -11 -10 -38 -23 -59
-29 -49 -13 -211 -121 -295 -198 -79 -71 -163 -182 -219 -291 l-43 -82 -52 0
c-29 0 -69 -4 -89 -9 -20 -5 -39 -7 -42 -4 -7 8 24 103 60 181 112 245 309
425 632 579 260 125 607 214 902 232 139 8 394 -3 500 -23z m165 -176 c295
-25 558 -88 800 -192 179 -77 374 -189 394 -226 5 -10 27 -24 48 -30 48 -15
180 -127 256 -217 110 -131 173 -266 198 -426 32 -207 -53 -468 -204 -626
l-40 -41 -51 24 c-138 64 -241 97 -336 104 -52 5 -96 8 -97 9 -1 1 -23 19 -48
41 -45 39 -56 44 -120 53 -16 3 -131 44 -255 92 -124 48 -261 99 -305 115
-157 54 -325 123 -325 133 0 6 8 19 17 30 24 26 23 90 -2 118 -32 35 -95 58
-181 65 -97 8 -177 -6 -261 -45 -55 -26 -89 -59 -105 -103 -2 -4 -52 -4 -112
0 l-109 7 -13 45 c-36 121 -172 191 -292 149 -24 -8 -37 -7 -62 6 l-31 16 26
30 c14 17 25 38 25 47 0 27 -47 90 -80 107 -31 16 -92 19 -125 5 -13 -5 -26
-3 -36 7 -15 12 -27 12 -95 -2 -54 -11 -98 -14 -141 -9 -35 3 -63 4 -63 1 0
-3 9 -21 19 -39 10 -18 22 -55 26 -81 18 -133 186 -188 345 -113 52 24 91 26
114 5 5 -4 -9 -28 -32 -55 -23 -25 -47 -62 -54 -82 l-13 -35 -260 6 c-143 4
-313 7 -377 7 l-118 0 0 66 c0 42 4 63 10 59 14 -9 149 16 157 28 6 10 -89 4
-136 -9 -23 -7 -24 -6 -17 32 11 59 83 217 136 298 52 79 137 170 218 234 66
52 215 142 235 142 8 0 25 -16 38 -35 24 -35 49 -46 49 -21 0 7 -9 25 -20 39
-11 14 -20 30 -20 35 0 13 115 61 240 100 355 112 812 163 1185 132z m1493
-372 c100 -68 265 -233 326 -325 59 -90 119 -226 147 -336 34 -128 32 -319 -3
-457 -39 -153 -128 -337 -207 -430 -28 -33 -30 -33 -31 -12 0 28 -35 99 -64
130 -11 13 -42 33 -68 44 l-46 20 39 51 c96 127 158 300 166 463 9 178 -33
331 -131 484 -51 78 -188 225 -268 287 -32 24 -58 50 -58 58 0 15 86 75 108
75 7 0 48 -24 90 -52z m-3583 -465 c-25 -61 -36 -121 -39 -214 -2 -90 -7 -113
-27 -149 -33 -59 -51 -64 -31 -8 9 26 13 55 9 71 -9 33 -43 66 -77 73 -89 18
-98 23 -124 76 -30 60 -33 94 -10 126 13 20 24 22 97 23 45 1 93 5 107 9 14 4
42 8 64 9 33 1 37 -2 31 -16z m1070 -143 c24 -26 14 -34 -30 -26 -37 7 -42 15
-23 34 17 17 32 15 53 -8z m-1225 -125 c41 -21 47 -54 18 -114 l-23 -51 -42
90 -42 90 30 0 c17 0 43 -7 59 -15z m1119 -21 c32 -7 32 -7 12 -28 -81 -88 52
-175 176 -115 29 14 51 35 66 61 l22 39 120 -3 120 -3 35 -36 c24 -24 55 -43
94 -55 51 -16 56 -20 40 -31 -15 -11 -21 -10 -42 9 -25 24 -37 25 -190 15 -41
-2 -78 -9 -84 -15 -6 -6 -15 -34 -19 -63 -5 -34 -17 -61 -34 -79 -45 -46 -37
-50 110 -50 101 0 145 4 175 16 43 17 70 55 70 97 0 38 61 74 147 87 40 5 91
17 113 26 45 18 54 14 64 -28 6 -27 5 -28 -37 -28 -54 0 -84 -21 -97 -68 -5
-20 -31 -63 -57 -95 -47 -57 -47 -58 -90 -51 -48 7 -63 -8 -44 -44 32 -61 185
-69 315 -17 51 20 70 24 76 15 4 -7 22 -83 40 -169 18 -86 45 -214 61 -286 15
-71 26 -131 24 -134 -10 -9 -118 -21 -282 -31 -319 -19 -645 17 -913 102 -206
65 -419 166 -560 266 -219 155 -352 370 -376 609 l-7 63 170 0 c93 0 273 -3
398 -7 l229 -6 38 -35 c21 -19 40 -33 43 -31 2 3 -12 24 -31 48 -18 24 -34 48
-34 52 0 10 93 12 139 3z m-1198 -121 c20 -42 23 -66 24 -198 2 -168 10 -204
81 -328 85 -148 195 -240 434 -366 216 -112 432 -192 715 -263 134 -33 152
-52 22 -23 -361 81 -757 253 -993 430 -66 49 -198 179 -240 236 -84 114 -132
271 -119 388 6 49 42 171 51 171 2 0 13 -21 25 -47z m-87 -12 c-24 -70 -28
-185 -10 -271 98 -466 844 -878 1811 -1002 239 -30 737 -33 965 -4 437 54 766
144 1112 305 338 157 552 392 605 665 14 76 15 102 5 181 -6 51 -15 101 -18
111 -5 13 -4 16 4 9 16 -15 40 -116 48 -199 12 -132 -29 -279 -101 -364 -23
-28 -26 -35 -14 -43 32 -20 51 -5 93 76 20 38 24 43 20 20 -4 -16 -17 -50 -30
-75 -13 -28 -19 -51 -14 -60 12 -23 -2 -49 -65 -120 -74 -83 -179 -175 -229
-202 -22 -11 -68 -24 -101 -28 -46 -6 -111 -30 -256 -97 -107 -50 -229 -103
-271 -119 -79 -29 -105 -51 -45 -39 44 9 192 70 367 150 104 48 165 69 214 77
101 14 147 42 280 169 l118 113 -30 -61 c-40 -78 -123 -168 -212 -228 -61 -42
-77 -48 -142 -55 -61 -6 -97 -18 -218 -75 -181 -84 -284 -124 -455 -174 -905
-267 -1996 -195 -2755 183 -369 184 -614 411 -711 658 -27 70 -33 100 -37 189
-5 121 5 179 49 285 34 81 48 96 23 25z m2353 18 c26 -11 109 -43 183 -71 74
-27 232 -86 350 -129 118 -44 234 -87 258 -96 41 -15 42 -17 36 -49 -8 -42 5
-43 34 -4 29 38 51 38 88 -1 43 -47 99 -68 174 -69 36 -1 83 -8 105 -16 22 -9
69 -26 105 -38 36 -13 88 -35 117 -50 57 -28 83 -32 101 -14 9 9 20 9 49 0 95
-29 143 -90 143 -182 0 -28 -5 -50 -11 -50 -9 0 -392 152 -769 305 -289 118
-763 306 -835 332 -103 37 -153 62 -160 81 -12 28 -24 72 -20 72 2 0 25 -9 52
-21z m-2053 -75 c38 -180 139 -340 306 -486 77 -68 126 -100 274 -178 380
-201 834 -290 1326 -261 96 6 196 14 222 17 54 7 56 3 61 -91 l2 -50 -70 -9
c-43 -5 -201 -5 -405 1 -326 10 -338 12 -455 42 -66 17 -172 43 -235 57 -264
60 -630 204 -827 326 -125 77 -241 194 -286 288 -43 91 -61 182 -52 264 10 81
20 106 44 106 11 0 33 11 48 24 15 13 29 23 30 22 1 -1 9 -33 17 -72z m4161
-172 c-22 -167 -128 -377 -246 -487 -45 -43 -43 -38 38 78 88 127 164 299 188
430 10 53 27 34 20 -21z m-1905 -26 c19 -7 94 -37 165 -66 72 -28 164 -65 205
-80 41 -15 161 -60 265 -100 105 -40 262 -99 350 -131 88 -33 198 -75 245 -93
47 -18 127 -49 177 -67 51 -19 92 -38 90 -43 -1 -4 -28 -23 -58 -42 l-55 -35
-175 66 c-183 69 -257 85 -298 63 -14 -7 -37 -37 -52 -67 -16 -30 -44 -71 -64
-91 -35 -36 -45 -60 -24 -60 6 0 36 24 67 54 31 29 69 56 84 60 19 4 62 -7
150 -40 68 -25 129 -49 137 -54 19 -10 -131 -71 -324 -131 -257 -80 -584 -139
-838 -152 l-68 -3 8 25 c15 48 8 185 -15 291 -12 58 -33 159 -47 225 -13 66
-38 185 -55 265 -37 176 -37 191 10 207 46 15 77 15 120 -1z m-2076 -461 c151
-98 465 -232 691 -293 192 -53 487 -121 570 -132 44 -6 230 -10 415 -10 l335
1 0 -38 0 -38 -180 -3 c-304 -5 -507 20 -800 99 -377 103 -448 124 -570 170
-244 94 -493 233 -605 338 l-45 43 65 -49 c36 -27 92 -66 124 -88z m3181 -124
c167 -58 225 -82 225 -90 0 -11 -47 -31 -70 -31 -11 0 -77 23 -146 51 -76 30
-144 51 -170 52 -49 2 -57 17 -22 41 33 24 62 20 183 -23z m903 -11 c51 -31
43 -55 -45 -141 -133 -129 -279 -219 -353 -219 -50 0 -112 19 -107 33 2 7 26
15 53 18 28 4 70 15 95 26 65 30 197 149 254 230 28 40 55 72 60 72 6 1 25 -8
43 -19z m7 -167 c-61 -93 -160 -180 -279 -243 -75 -39 -134 -40 -238 -3 -43
14 -78 30 -78 35 0 17 53 20 86 4 50 -23 138 -20 205 7 60 25 149 86 249 171
36 30 67 55 69 56 2 0 -5 -12 -14 -27z"/>
<path d="M990 3050 c0 -5 5 -10 10 -10 6 0 10 5 10 10 0 6 -4 10 -10 10 -5 0
-10 -4 -10 -10z"/>
<path d="M942 3029 c2 -6 8 -10 13 -10 5 0 11 4 13 10 2 6 -4 11 -13 11 -9 0
-15 -5 -13 -11z"/>
<path d="M661 2597 c-6 -8 -8 -17 -4 -20 7 -8 33 11 33 24 0 13 -16 11 -29 -4z"/>
<path d="M486 2355 c-21 -49 -30 -105 -19 -105 11 0 53 101 53 126 0 26 -20
14 -34 -21z"/>
<path d="M2255 2953 c-11 -2 -30 -6 -42 -9 -40 -8 -26 -26 15 -20 20 3 65 8
99 12 35 3 60 10 57 15 -5 9 -91 11 -129 2z"/>
<path d="M2027 2903 c-50 -17 -113 -28 -230 -39 -89 -8 -166 -19 -170 -23 -8
-8 33 -44 89 -77 16 -9 17 -15 7 -37 -22 -48 10 -94 79 -116 38 -12 78 -52 78
-77 0 -7 14 -23 31 -35 17 -12 37 -36 44 -53 12 -28 11 -33 -16 -64 -39 -44
-39 -92 0 -154 48 -75 178 -125 276 -107 58 11 118 42 144 75 29 37 29 110 -2
155 -51 76 -191 117 -306 89 -29 -7 -54 -10 -56 -8 -11 11 20 84 51 117 37 42
42 62 19 81 -18 15 -19 44 -2 58 6 6 27 14 46 19 19 5 44 21 55 36 20 27 20
29 2 75 -10 26 -23 62 -29 80 -14 38 -20 38 -110 5z m-27 -46 c0 -2 -10 -23
-21 -48 -13 -25 -24 -74 -28 -115 l-6 -71 -46 67 c-42 62 -44 66 -21 62 39 -8
24 30 -21 52 -39 19 -60 15 -39 -6 16 -16 15 -33 -1 -19 -8 6 -31 18 -52 26
-34 15 -37 15 -32 1 6 -14 3 -14 -20 1 -27 18 -26 18 116 30 79 6 146 14 149
17 6 6 22 8 22 3z m-225 -87 c10 -11 13 -20 7 -20 -6 0 -16 9 -22 20 -6 11 -9
20 -7 20 2 0 12 -9 22 -20z m278 -473 c3 -8 1 -20 -4 -28 -7 -12 -11 -11 -25
3 -17 17 -12 38 11 38 7 0 15 -6 18 -13z"/>
<path d="M2430 2884 c-106 -29 -197 -102 -245 -198 -29 -58 -30 -74 -11 -121
53 -126 362 -138 479 -19 25 25 28 33 22 69 -7 49 -7 85 1 152 5 49 4 55 -23
82 -50 50 -124 61 -223 35z m154 -44 c16 -16 1 -21 -33 -9 -35 12 -109 6 -141
-11 -23 -13 -28 -45 -5 -36 35 13 112 15 144 3 61 -21 48 -34 -43 -40 -46 -3
-101 -13 -122 -22 -51 -21 -63 -14 -61 32 3 35 7 40 57 65 30 15 66 29 80 32
36 6 112 -2 124 -14z m-298 -215 c4 -8 3 -23 0 -32 -6 -15 -8 -15 -23 -1 -16
17 -12 48 7 48 6 0 13 -7 16 -15z"/>
<path d="M2920 2828 c-11 -18 -20 -36 -20 -39 0 -4 -17 -10 -37 -14 -21 -4
-46 -11 -56 -16 -26 -14 -38 -54 -27 -84 8 -20 4 -30 -17 -56 -19 -23 -28 -46
-31 -85 -6 -72 10 -107 69 -149 31 -22 49 -42 49 -55 0 -27 28 -26 32 1 3 23
5 24 86 60 57 25 118 83 128 123 3 14 0 42 -7 63 -7 21 -12 56 -10 78 2 37 -3
47 -52 102 -31 34 -58 71 -62 82 -9 30 -22 26 -45 -11z m34 -84 c-6 -31 -9
-35 -29 -30 -35 9 -53 -2 -66 -42 l-12 -36 -18 23 c-11 13 -19 34 -19 47 0 20
7 26 45 35 28 7 54 22 68 39 27 34 41 18 31 -36z m91 -102 c-4 -27 -2 -48 5
-57 18 -21 15 -73 -5 -95 l-18 -20 -24 21 c-20 19 -26 21 -49 10 -15 -6 -29
-10 -31 -7 -3 3 11 37 31 77 27 54 36 84 36 122 l0 51 31 -30 c28 -26 30 -33
24 -72z"/>
<path d="M3045 2850 c-6 -10 -4 -10 124 -44 88 -24 114 -26 98 -9 -13 12 -217
61 -222 53z"/>
<path d="M1433 2750 c-22 -9 -32 -30 -14 -30 19 0 71 23 71 31 0 11 -28 11
-57 -1z"/>
<path d="M3367 2749 c-39 -11 -57 -28 -57 -55 0 -30 27 -44 87 -44 53 0 73 12
73 45 0 41 -52 68 -103 54z m68 -49 c0 -21 -5 -26 -32 -28 -18 -2 -42 2 -54 9
l-23 12 24 19 c14 12 35 18 54 16 26 -2 31 -7 31 -28z"/>
<path d="M1494 2641 c-80 -20 -65 -44 22 -35 45 5 64 3 64 -4 0 -15 -65 -42
-99 -42 -15 0 -37 -7 -49 -16 -17 -11 -35 -14 -65 -10 -23 3 -60 2 -82 -4 -25
-6 -44 -5 -50 1 -18 18 23 42 91 53 36 6 67 16 68 21 1 13 -57 18 -112 10
-147 -22 -109 -203 52 -255 91 -29 233 -7 297 47 131 110 35 275 -137 234z"/>
<path d="M3367 2560 c-82 -21 -140 -63 -157 -115 -16 -49 9 -101 86 -173 75
-71 81 -96 29 -118 -44 -18 -59 -18 -102 2 -25 13 -33 22 -31 38 2 17 11 22
51 24 62 4 51 22 -14 22 -42 0 -51 -3 -60 -24 -8 -17 -8 -29 0 -45 32 -59 123
-72 190 -28 29 19 54 27 86 27 25 0 45 5 45 10 0 6 -16 10 -36 10 -37 0 -74
15 -74 29 0 5 28 2 61 -6 98 -22 187 3 246 71 105 118 -12 274 -212 282 -38 2
-87 -1 -108 -6z"/>
<path d="M795 2469 c-30 -37 -79 -129 -71 -136 9 -10 27 9 52 55 13 26 34 62
45 80 27 41 9 42 -26 1z"/>
<path d="M3101 2463 c-31 -38 -38 -53 -23 -53 11 0 47 39 61 68 18 35 -4 26
-38 -15z"/>
<path d="M870 2429 c-7 -11 -9 -24 -5 -27 7 -7 35 25 35 40 0 16 -19 8 -30
-13z"/>
<path d="M1790 2441 c0 -15 35 -23 65 -15 20 5 23 9 13 15 -18 12 -78 11 -78
0z"/>
<path d="M2595 2420 c4 -6 11 -8 16 -5 14 9 11 15 -7 15 -8 0 -12 -5 -9 -10z"/>
<path d="M1048 2409 c-41 -23 -4 -58 48 -45 29 8 31 31 5 46 -24 12 -31 12
-53 -1z"/>
<path d="M2969 2351 c12 -22 -4 -80 -22 -82 -7 -1 -48 -2 -92 -3 -64 -1 -90
-6 -130 -26 -45 -23 -71 -50 -46 -50 5 0 22 -5 36 -10 l27 -10 -42 -46 c-73
-79 -86 -140 -47 -209 19 -34 32 -44 87 -63 129 -46 260 -35 404 33 98 46 131
117 91 195 -18 34 -84 82 -137 99 -42 14 -44 17 -23 45 27 36 19 81 -20 115
-42 37 -103 45 -86 12z m-51 -246 c-7 -7 -39 -20 -72 -30 -56 -16 -58 -17 -37
-31 24 -17 19 -34 -10 -34 -11 0 -19 7 -19 16 0 14 -3 14 -16 4 -12 -11 -18
-10 -31 3 -41 40 41 113 141 126 48 6 51 5 54 -18 2 -13 -2 -29 -10 -36z"/>
<path d="M880 2350 c0 -5 5 -10 10 -10 6 0 10 5 10 10 0 6 -4 10 -10 10 -5 0
-10 -4 -10 -10z"/>
<path d="M3875 2349 c-10 -16 0 -21 29 -13 14 3 23 10 20 15 -7 12 -41 11 -49
-2z"/>
<path d="M1587 2321 l-59 -6 26 -22 c13 -12 30 -41 37 -63 21 -68 41 -75 167
-61 59 6 122 9 141 5 26 -6 33 -4 29 7 -2 8 -20 15 -39 17 -27 2 -45 15 -89
64 -52 57 -58 61 -105 63 -28 1 -76 0 -108 -4z"/>
<path d="M2685 2280 c-3 -5 1 -10 9 -10 9 0 16 5 16 10 0 6 -4 10 -9 10 -6 0
-13 -4 -16 -10z"/>
<path d="M3963 2207 l-113 -39 -35 31 c-54 47 -110 39 -140 -18 -11 -23 -28
-33 -83 -50 -68 -20 -144 -67 -138 -86 2 -6 58 -10 142 -11 105 0 150 -4 183
-17 24 -9 65 -17 91 -17 26 0 67 -9 91 -20 50 -22 87 -25 123 -9 54 25 55 109
1 129 -36 14 -40 32 -16 86 12 26 18 50 14 54 -5 3 -59 -12 -120 -33z m127
-172 c0 -30 -19 -45 -54 -45 -30 1 -103 28 -79 29 6 1 30 17 53 36 40 34 44
35 61 19 11 -10 19 -27 19 -39z"/>
<path d="M780 2209 c0 -5 5 -7 10 -4 6 3 10 8 10 11 0 2 -4 4 -10 4 -5 0 -10
-5 -10 -11z"/>
<path d="M2490 2210 c-22 -14 0 -44 34 -48 34 -4 47 25 21 44 -22 16 -34 17
-55 4z"/>
<path d="M3247 2183 c-4 -3 -7 -11 -7 -17 0 -6 5 -5 12 2 6 6 9 14 7 17 -3 3
-9 2 -12 -2z"/>
<path d="M1940 2120 c0 -6 7 -22 16 -35 38 -59 -25 -95 -123 -69 -30 8 -60 17
-65 20 -6 4 -8 -2 -6 -12 4 -24 49 -45 104 -52 108 -12 161 46 119 128 -15 29
-45 42 -45 20z"/>
<path d="M2500 2071 c-36 -10 -35 -55 1 -59 22 -3 29 2 37 27 10 27 7 42 -7
40 -3 -1 -17 -4 -31 -8z"/>
<path d="M1800 2060 c-22 -6 -23 -8 -7 -15 21 -9 101 0 125 15 21 12 -79 12
-118 0z"/>
<path d="M846 2035 c4 -8 13 -15 21 -15 13 0 13 3 3 15 -7 8 -16 15 -21 15 -5
0 -6 -7 -3 -15z"/>
<path d="M3493 1925 c-79 -22 -186 -79 -221 -120 -58 -65 -37 -141 49 -185 88
-46 205 -44 452 5 137 27 157 40 157 100 0 150 -231 255 -437 200z m204 -36
c22 -8 24 -12 13 -19 -8 -6 -33 -10 -56 -10 -45 0 -144 -26 -159 -42 -7 -7 2
-9 27 -5 31 5 40 2 48 -14 9 -16 5 -22 -22 -39 -47 -29 -97 -41 -119 -30 -10
6 -32 10 -49 10 -37 0 -49 23 -26 49 9 10 16 23 16 29 0 17 75 52 144 67 76
17 146 18 183 4z m176 -198 c6 -6 2 -13 -10 -20 -23 -12 -212 -45 -219 -38 -7
7 64 58 94 68 32 10 121 4 135 -10z"/>
<path d="M4215 1899 c-8 -34 1 -51 15 -29 12 19 13 60 1 60 -5 0 -12 -14 -16
-31z"/>
<path d="M4122 1880 c0 -14 2 -19 5 -12 2 6 2 18 0 25 -3 6 -5 1 -5 -13z"/>
<path d="M3990 1868 c0 -3 12 -31 26 -62 30 -66 27 -124 -7 -133 -10 -3 -19
-12 -19 -19 0 -19 13 -17 44 7 46 36 33 142 -23 193 -12 11 -21 17 -21 14z"/>
<path d="M2552 1838 c-14 -14 -16 -38 -4 -38 12 0 32 23 32 37 0 16 -12 17
-28 1z"/>
<path d="M2710 1779 c0 -11 45 -32 93 -43 48 -11 27 14 -28 35 -58 22 -65 23
-65 8z"/>
<path d="M3100 1771 c0 -14 18 -23 31 -15 8 4 7 9 -2 15 -18 11 -29 11 -29 0z"/>
<path d="M4110 1737 c0 -7 -16 -39 -35 -71 -19 -32 -35 -62 -35 -67 0 -21 21
-6 50 36 33 48 51 115 31 115 -6 0 -11 -6 -11 -13z"/>
<path d="M2930 1730 c0 -13 35 -27 140 -55 80 -21 122 -23 87 -3 -15 8 -210
68 -222 68 -3 0 -5 -5 -5 -10z"/>
<path d="M4201 1625 c-34 -81 -51 -147 -33 -130 8 8 82 188 82 201 0 2 -4 4
-9 4 -5 0 -23 -34 -40 -75z"/>
<path d="M3240 1580 c0 -5 5 -10 10 -10 6 0 10 5 10 10 0 6 -4 10 -10 10 -5 0
-10 -4 -10 -10z"/>
<path d="M4020 1476 c0 -9 5 -16 10 -16 6 0 10 4 10 9 0 6 -4 13 -10 16 -5 3
-10 -1 -10 -9z"/>
<path d="M3643 1473 c-30 -11 -6 -63 29 -63 20 0 44 38 31 50 -12 11 -46 19
-60 13z"/>
<path d="M3825 1440 c3 -5 22 -10 41 -10 19 0 34 5 34 10 0 6 -18 10 -41 10
-24 0 -38 -4 -34 -10z"/>
<path d="M3960 1371 c0 -10 30 -24 37 -17 3 3 2 9 -2 15 -8 13 -35 15 -35 2z"/>
<path d="M4406 1405 c-20 -43 -36 -82 -36 -86 0 -22 21 -5 45 35 32 55 48 107
36 119 -6 6 -24 -22 -45 -68z"/>
<path d="M287 1988 c20 -34 43 -48 43 -26 0 21 -29 58 -46 58 -14 0 -13 -5 3
-32z"/>
<path d="M697 1814 c-13 -13 -7 -52 9 -58 25 -9 56 12 52 37 -3 22 -45 36 -61
21z"/>
<path d="M1152 1774 c-28 -19 -28 -32 1 -43 41 -15 98 19 75 46 -14 18 -49 16
-76 -3z"/>
<path d="M662 1724 c1 -9 9 -19 16 -22 9 -3 13 2 10 14 -1 9 -9 19 -16 22 -9
3 -13 -2 -10 -14z"/>
<path d="M888 1717 c-96 -27 -168 -97 -168 -162 1 -79 81 -173 171 -199 66
-20 122 -20 185 -1 61 18 65 18 58 1 -13 -34 96 -86 180 -86 55 0 90 30 82 70
-5 26 -3 28 41 34 25 3 74 6 109 6 35 0 64 4 64 9 0 23 -89 105 -144 133 -50
25 -74 31 -130 32 -68 1 -70 2 -77 30 -11 41 -63 91 -122 116 -63 28 -183 35
-249 17z m-20 -222 c8 -18 8 -26 0 -31 -13 -8 -51 34 -42 47 10 17 31 9 42
-16z m478 -128 c24 -21 25 -26 14 -46 -11 -22 -17 -23 -69 -18 -114 10 -185
75 -76 69 28 -1 57 2 65 8 23 15 36 12 66 -13z"/>
<path d="M1638 1668 c-27 -21 -30 -53 -9 -73 29 -25 88 -13 104 22 10 22 8 28
-12 44 -27 22 -60 24 -83 7z m69 -35 c6 -16 -45 -29 -59 -15 -6 6 -7 15 -3 22
9 14 57 9 62 -7z"/>
<path d="M1392 1629 c6 -17 86 -25 101 -10 8 8 5 11 -8 11 -11 0 -37 3 -59 7
-31 5 -38 3 -34 -8z"/>
<path d="M2207 1510 c-6 -23 12 -38 23 -20 9 14 2 40 -10 40 -4 0 -10 -9 -13
-20z"/>
<path d="M1720 1480 c-8 -5 -11 -12 -8 -16 11 -10 60 5 53 16 -8 12 -26 12
-45 0z"/>
<path d="M1913 1400 c-87 -18 -164 -77 -179 -137 -9 -36 2 -126 19 -159 8 -16
32 -46 53 -67 65 -65 155 -79 326 -51 27 4 42 2 53 -10 25 -25 64 -30 124 -18
69 15 91 35 91 82 0 44 -14 60 -55 60 l-32 0 1 69 c1 79 -12 104 -83 158 -73
56 -228 92 -318 73z m-25 -203 c2 -11 -3 -17 -16 -17 -26 0 -34 11 -20 27 14
17 32 12 36 -10z m-3 -57 c10 -11 26 -20 37 -20 10 0 18 -4 18 -10 0 -14 55
-40 87 -40 22 0 25 -2 13 -10 -39 -25 -145 5 -179 51 -32 43 -12 68 24 29z
m483 -97 c4 -37 -11 -48 -79 -58 -45 -7 -89 5 -89 24 0 5 21 23 48 40 34 23
57 31 82 29 31 -3 35 -6 38 -35z"/>
<path d="M1445 1255 c-65 -64 -1 -151 106 -143 60 4 65 30 9 52 -22 9 -45 16
-50 16 -18 0 -10 -17 13 -28 l22 -11 -22 0 c-12 -1 -35 10 -50 23 -27 24 -27
26 -13 53 21 37 53 40 99 9 46 -32 54 -33 39 -1 -12 27 -63 55 -102 55 -15 0
-38 -11 -51 -25z"/>
<path d="M920 1261 c0 -18 43 -51 67 -51 43 0 25 17 -59 58 -5 2 -8 -1 -8 -7z"/>
<path d="M2467 1244 c-4 -4 -7 -18 -7 -31 0 -21 4 -24 28 -21 21 2 27 8 27 28
0 18 -6 26 -20 28 -12 2 -24 0 -28 -4z"/>
<path d="M1172 1169 c2 -7 10 -15 17 -17 8 -3 12 1 9 9 -2 7 -10 15 -17 17 -8
3 -12 -1 -9 -9z"/>
<path d="M1385 1026 c-24 -17 -14 -43 20 -52 36 -9 55 1 55 30 0 16 -7 26 -22
30 -31 8 -32 8 -53 -8z"/>
<path d="M2438 1020 c-21 -32 -26 -54 -13 -60 12 -6 37 45 33 68 -3 14 -6 13
-20 -8z"/>
<path d="M2543 1013 c-18 -6 -16 -23 1 -23 17 0 30 16 19 23 -5 2 -14 2 -20 0z"/>
<path d="M1717 943 c-12 -12 -7 -41 8 -47 25 -9 45 4 45 30 0 18 -5 24 -23 24
-13 0 -27 -3 -30 -7z"/>
<path d="M2470 940 c0 -5 5 -10 10 -10 6 0 10 5 10 10 0 6 -4 10 -10 10 -5 0
-10 -4 -10 -10z"/>
<path d="M2355 870 c-3 -5 1 -10 9 -10 9 0 16 5 16 10 0 6 -4 10 -9 10 -6 0
-13 -4 -16 -10z"/>
<path d="M1240 551 c0 -19 303 -106 485 -140 214 -40 340 -52 616 -58 264 -6
349 -2 349 16 0 4 -102 11 -227 14 -377 9 -891 80 -1133 156 -72 23 -90 25
-90 12z"/>
<path d="M406 1594 c-9 -24 -7 -64 3 -64 11 0 20 69 10 76 -4 2 -10 -3 -13
-12z"/>
<path d="M520 1344 c0 -17 43 -74 56 -74 12 0 13 4 3 23 -21 41 -59 74 -59 51z"/>
<path d="M672 1118 c2 -7 31 -28 64 -45 61 -34 360 -163 375 -163 36 0 -44 52
-136 88 -28 11 -102 45 -164 76 -114 56 -146 66 -139 44z"/>
<path d="M2965 1204 c-42 -16 -62 -30 -53 -39 7 -8 89 24 108 41 13 12 13 14
0 13 -8 0 -33 -7 -55 -15z"/>
<path d="M3377 929 c-24 -14 -11 -32 14 -19 10 6 19 15 19 20 0 13 -10 12 -33
-1z"/>
</g>
</svg>
