<?xml version="1.0" standalone="no"?>
<!DOCTYPE svg PUBLIC "-//W3C//DTD SVG 20010904//EN"
 "http://www.w3.org/TR/2001/REC-SVG-20010904/DTD/svg10.dtd">
<svg version="1.0" xmlns="http://www.w3.org/2000/svg"
 width="834.000000pt" height="314.000000pt" viewBox="0 0 834.000000 314.000000"
 preserveAspectRatio="xMidYMid meet">

<g transform="translate(0.000000,314.000000) scale(0.100000,-0.100000)"
fill="#000000" stroke="none">
<path d="M778 2873 c6 -2 18 -2 25 0 6 3 1 5 -13 5 -14 0 -19 -2 -12 -5z"/>
<path d="M843 2863 c9 -2 25 -2 35 0 9 3 1 5 -18 5 -19 0 -27 -2 -17 -5z"/>
<path d="M686 2839 c-38 -30 -56 -71 -55 -126 l2 -48 6 55 c8 64 20 90 58 119
16 11 25 21 22 21 -4 0 -18 -9 -33 -21z"/>
<path d="M908 2853 c6 -2 18 -2 25 0 6 3 1 5 -13 5 -14 0 -19 -2 -12 -5z"/>
<path d="M968 2843 c7 -3 16 -2 19 1 4 3 -2 6 -13 5 -11 0 -14 -3 -6 -6z"/>
<path d="M1015 2830 c11 -5 27 -9 35 -9 9 0 8 4 -5 9 -11 5 -27 9 -35 9 -9 0
-8 -4 5 -9z"/>
<path d="M1078 2813 c7 -3 16 -2 19 1 4 3 -2 6 -13 5 -11 0 -14 -3 -6 -6z"/>
<path d="M1140 2795 c19 -7 42 -13 50 -13 8 0 -1 6 -20 13 -19 7 -42 13 -50
13 -8 0 1 -6 20 -13z"/>
<path d="M1235 2766 c17 -7 41 -16 55 -20 20 -5 19 -3 -5 8 -16 7 -41 16 -55
20 -20 5 -19 3 5 -8z"/>
<path d="M1330 2730 c8 -5 20 -10 25 -10 6 0 3 5 -5 10 -8 5 -19 10 -25 10 -5
0 -3 -5 5 -10z"/>
<path d="M1409 2699 c24 -11 46 -18 48 -15 4 4 -73 36 -85 35 -4 0 13 -9 37
-20z"/>
<path d="M1510 2655 c25 -13 50 -24 55 -24 6 0 -10 11 -35 24 -25 13 -49 24
-55 24 -5 0 10 -11 35 -24z"/>
<path d="M640 2655 c0 -16 36 -58 61 -70 15 -8 71 -24 125 -36 401 -87 895
-324 1283 -616 96 -72 132 -83 196 -58 75 28 115 103 95 177 -19 69 -222 242
-448 382 -108 68 -351 196 -369 196 -5 0 55 -33 132 -73 77 -40 176 -94 220
-122 170 -105 396 -287 436 -351 40 -65 12 -161 -56 -190 -61 -25 -98 -18
-167 31 -460 324 -868 524 -1264 619 -176 43 -181 44 -213 81 -17 20 -31 33
-31 30z"/>
<path d="M2956 2585 c-89 -36 -93 -43 -63 -101 l24 -49 -28 -165 c-53 -305
-34 -380 94 -380 24 0 59 8 79 18 33 17 38 18 64 3 21 -11 56 -16 124 -16 87
0 100 3 149 30 74 40 111 99 111 172 0 79 -37 137 -103 162 l-28 11 42 33 c64
49 82 79 86 144 5 65 -15 108 -64 140 -41 27 -182 24 -247 -5 l-48 -22 -20 25
c-26 33 -91 33 -172 0z m318 -131 c26 -26 20 -81 -13 -114 -25 -26 -136 -69
-147 -58 -7 8 29 173 40 180 21 14 104 9 120 -8z m-52 -254 c43 -12 58 -34 58
-83 0 -53 -38 -82 -108 -82 -90 0 -95 4 -90 80 2 35 7 67 11 71 4 4 24 10 44
14 21 4 40 8 43 9 3 0 22 -4 42 -9z"/>
<path d="M3854 2592 c-28 -10 -63 -26 -78 -35 l-26 -18 26 -50 25 -51 -25
-151 c-46 -272 -44 -333 12 -377 23 -19 35 -21 87 -16 82 9 90 9 172 1 60 -7
77 -5 98 9 40 27 65 75 65 129 0 26 -1 47 -3 47 -1 0 -34 -7 -72 -15 -39 -8
-94 -15 -122 -15 -52 0 -53 1 -53 28 0 16 16 116 35 222 19 106 35 206 35 222
0 31 -16 68 -34 80 -19 13 -89 8 -142 -10z"/>
<path d="M4615 2590 c-85 -35 -91 -42 -78 -102 l10 -52 -83 -170 c-110 -224
-127 -303 -74 -356 26 -26 91 -26 148 0 40 18 43 22 37 48 -3 16 -1 50 6 76
l11 46 94 0 93 0 12 -42 c28 -105 71 -148 146 -148 42 0 99 14 123 30 13 9 13
12 -3 21 -27 16 -55 81 -67 155 -6 37 -10 154 -8 260 3 183 2 194 -18 221 -22
30 -15 28 -149 24 -16 -1 -57 1 -90 4 -46 4 -72 0 -110 -15z m166 -275 c-1
-65 -4 -122 -7 -127 -8 -12 -134 -10 -134 2 0 22 122 251 132 248 7 -3 10 -45
9 -123z"/>
<path d="M5296 2588 c-12 -45 -6 -103 14 -136 23 -37 107 -82 155 -82 59 -1
57 -11 -31 -130 -75 -103 -88 -116 -122 -123 -109 -22 -142 -165 -49 -211 47
-23 90 -16 144 23 36 26 42 27 64 15 49 -28 153 -54 214 -54 73 0 120 25 147
80 20 39 25 145 7 155 -6 4 -36 -4 -67 -18 -53 -23 -63 -24 -132 -16 -41 6
-75 11 -76 12 -6 6 242 304 266 318 37 23 50 48 50 99 0 56 -34 90 -90 90 -47
0 -94 -21 -104 -46 -6 -15 -17 -16 -94 -10 -78 5 -231 34 -273 51 -12 4 -18
-1 -23 -17z"/>
<path d="M6215 2596 c-48 -15 -101 -42 -110 -56 -3 -5 5 -31 19 -58 l25 -49
-26 -144 c-14 -82 -26 -186 -27 -242 l-1 -99 33 -29 c38 -34 97 -39 163 -13
37 15 40 20 34 43 -20 80 -16 159 19 341 42 216 45 271 16 300 -23 23 -82 26
-145 6z"/>
<path d="M6750 2603 c-53 -19 -130 -57 -130 -65 0 -5 11 -30 24 -56 l23 -47
-28 -165 c-43 -248 -37 -335 22 -365 62 -32 188 -4 181 40 -14 78 -12 176 3
263 20 114 34 148 35 84 0 -65 28 -190 57 -255 30 -66 88 -122 142 -137 54
-15 140 -11 191 9 38 14 45 21 42 41 -16 129 -13 178 27 389 23 118 41 225 41
237 0 25 -23 34 -88 34 -187 0 -270 -215 -181 -470 25 -74 17 -92 -11 -26 -20
43 -37 114 -74 309 -19 97 -46 144 -100 168 -39 18 -140 25 -176 12z"/>
<path d="M7878 2591 c-82 -27 -139 -63 -191 -121 -69 -77 -100 -148 -105 -246
-8 -144 38 -243 139 -299 50 -28 61 -30 157 -30 100 0 102 -1 102 -23 0 -35
25 -88 51 -106 30 -21 91 -21 136 0 31 15 34 20 26 43 -13 43 -6 160 16 254
37 157 25 207 -52 207 -39 0 -122 -28 -163 -55 l-24 -16 26 -51 26 -52 -30
-27 c-59 -53 -135 -47 -172 13 -15 25 -20 51 -20 108 0 87 29 163 81 211 l31
29 39 -34 c72 -66 170 -68 223 -6 53 64 38 153 -33 194 -50 29 -186 33 -263 7z"/>
<path d="M373 2565 c-60 -36 -83 -79 -83 -153 0 -61 2 -68 96 -332 61 -170 50
-281 -36 -354 -38 -31 -68 -33 -103 -6 -60 48 -60 130 1 253 11 23 -60 -28
-91 -64 -89 -103 -99 -274 -26 -425 55 -112 147 -198 287 -269 l72 -37 0 -45
c0 -75 30 -251 57 -337 77 -246 221 -410 433 -494 30 -12 76 -25 101 -28 39
-5 50 -3 68 15 38 38 27 66 -65 162 -94 98 -94 141 -2 309 22 41 52 95 65 120
34 63 27 108 -36 231 -56 112 -65 164 -34 222 l17 32 7 -42 c17 -97 62 -138
141 -131 59 6 109 48 134 115 28 73 16 189 -30 293 -80 179 -88 203 -89 259 0
61 21 114 52 131 11 5 21 10 23 10 2 0 3 -22 3 -50 0 -44 4 -54 40 -90 22 -23
76 -66 120 -97 134 -93 190 -156 209 -235 3 -16 10 -28 15 -28 20 0 230 203
247 238 48 101 18 220 -73 286 -195 143 -641 358 -891 431 -90 27 -256 65
-280 65 -17 0 -34 -42 -67 -175 -16 -60 -29 -111 -31 -113 -5 -7 -166 164
-180 191 -17 31 -20 86 -9 135 8 40 -4 41 -62 7z m527 -275 c63 -34 13 -190
-61 -190 -68 0 -68 133 1 187 19 15 36 16 60 3z m708 -252 c19 -19 14 -54 -14
-87 -51 -61 -106 -23 -70 47 24 47 60 64 84 40z m-548 -148 c27 -27 28 -110 0
-155 -64 -103 -161 -29 -116 89 17 43 38 68 66 79 25 9 29 8 50 -13z m-313
-402 c29 -37 18 -109 -20 -130 -17 -9 -24 -7 -40 13 -24 30 -17 86 14 112 25
20 33 21 46 5z m67 -465 c74 -74 49 -229 -33 -208 -36 9 -51 24 -72 70 -31 68
-20 143 24 162 29 13 51 6 81 -24z"/>
<path d="M2960 1318 c-98 -41 -96 -37 -66 -96 l26 -51 -25 -143 c-48 -285 -43
-356 25 -391 41 -21 105 -17 149 9 l28 17 -14 48 c-8 26 -13 67 -11 90 l3 43
100 1 c78 1 110 6 146 22 170 77 232 284 123 411 -44 52 -88 67 -173 57 -76
-8 -101 -8 -191 -1 -53 5 -75 2 -120 -16z m271 -108 c25 -14 49 -62 49 -100 0
-68 -62 -134 -138 -146 -32 -5 -42 -3 -42 7 0 17 38 219 45 237 5 15 59 16 86
2z"/>
<path d="M3824 1322 c-28 -10 -63 -26 -78 -35 l-26 -18 26 -50 25 -51 -27
-161 c-45 -273 -36 -352 41 -377 62 -21 174 14 159 48 -4 9 -12 42 -17 72 -8
48 -4 83 32 279 43 225 44 259 14 294 -21 22 -82 22 -149 -1z"/>
<path d="M4246 1318 c-10 -40 -6 -89 10 -124 20 -41 96 -82 171 -91 l51 -6
-90 -121 c-81 -109 -93 -122 -128 -129 -90 -19 -134 -136 -72 -193 23 -23 34
-25 78 -22 36 3 61 13 87 32 l37 29 59 -27 c152 -68 280 -54 326 34 16 31 21
160 6 160 -5 0 -33 -11 -62 -24 -50 -22 -60 -23 -133 -15 -44 5 -81 10 -82 12
-6 6 242 305 267 321 61 38 75 106 33 155 -22 27 -32 31 -74 31 -39 0 -54 -5
-80 -30 -25 -23 -41 -30 -74 -30 -54 0 -208 25 -271 45 -27 8 -51 15 -51 15
-1 0 -4 -10 -8 -22z"/>
<path d="M5057 1333 c-15 -15 -7 -118 12 -149 23 -38 88 -71 159 -80 28 -4 52
-8 52 -11 0 -2 -41 -58 -90 -123 -68 -90 -96 -120 -113 -120 -35 0 -82 -35
-101 -75 -15 -32 -16 -44 -7 -76 14 -48 44 -69 96 -69 36 0 60 11 116 52 13 9
24 8 53 -6 168 -80 303 -70 346 26 21 45 28 158 10 158 -5 0 -34 -11 -64 -24
-51 -22 -60 -24 -132 -15 -43 6 -80 11 -81 12 -7 8 242 306 271 324 46 30 62
78 42 126 -17 43 -41 57 -95 57 -31 0 -49 -7 -74 -30 -27 -24 -44 -30 -79 -30
-51 0 -240 33 -281 49 -33 13 -32 13 -40 4z"/>
<path d="M6060 1331 c-34 -11 -108 -49 -113 -58 -3 -5 0 -30 6 -58 10 -50 10
-50 -61 -191 -79 -157 -112 -246 -112 -298 0 -99 70 -129 177 -78 31 15 33 19
33 66 0 97 -1 96 110 96 l99 0 16 -56 c9 -33 30 -70 50 -92 31 -35 37 -37 92
-36 35 0 71 7 92 18 l33 18 -26 27 c-51 53 -59 103 -58 349 2 174 -1 230 -12
257 -17 40 -47 51 -109 40 -23 -3 -49 -6 -57 -5 -8 0 -42 2 -75 5 -33 2 -71 0
-85 -4z m140 -194 c0 -24 -3 -85 -6 -135 l-7 -92 -69 0 c-82 0 -82 -8 -6 145
71 142 88 158 88 82z"/>
</g>
</svg>
